<?xml version="1.0" encoding="UTF-8" standalone="no"?>
<!-- Generated by IcoMoon.io -->

<svg
   xmlns:dc="http://purl.org/dc/elements/1.1/"
   xmlns:cc="http://creativecommons.org/ns#"
   xmlns:rdf="http://www.w3.org/1999/02/22-rdf-syntax-ns#"
   xmlns:svg="http://www.w3.org/2000/svg"
   xmlns="http://www.w3.org/2000/svg"
   xmlns:sodipodi="http://sodipodi.sourceforge.net/DTD/sodipodi-0.dtd"
   xmlns:inkscape="http://www.inkscape.org/namespaces/inkscape"
   version="1.1"
   width="16"
   height="16"
   viewBox="0 0 16 16"
   id="svg7"
   sodipodi:docname="arxiv.svg"
   inkscape:version="0.92.5 (2060ec1f9f, 2020-04-08)">
  <metadata
     id="metadata13">
    <rdf:RDF>
      <cc:Work
         rdf:about="">
        <dc:format>image/svg+xml</dc:format>
        <dc:type
           rdf:resource="http://purl.org/dc/dcmitype/StillImage" />
        <dc:title></dc:title>
      </cc:Work>
    </rdf:RDF>
  </metadata>
  <defs
     id="defs11" />
  <sodipodi:namedview
     pagecolor="#ffffff"
     bordercolor="#666666"
     borderopacity="1"
     objecttolerance="10"
     gridtolerance="10"
     guidetolerance="10"
     inkscape:pageopacity="0"
     inkscape:pageshadow="2"
     inkscape:window-width="1920"
     inkscape:window-height="1016"
     id="namedview9"
     showgrid="false"
     inkscape:zoom="10.429825"
     inkscape:cx="4.538839"
     inkscape:cy="12.270785"
     inkscape:window-x="0"
     inkscape:window-y="27"
     inkscape:window-maximized="1"
     inkscape:current-layer="svg7"
     scale-x="0.4"
     fit-margin-top="0"
     fit-margin-left="0"
     fit-margin-right="0"
     fit-margin-bottom="0" />
  <g
     id="icomoon-ignore"
     transform="matrix(0.01822027,0,0,0.01822025,0,-1.25716)" />
  <path
     d="m 8.00067,4.10413 c -2.14914,0 -3.89654,1.74807 -3.89654,3.89585 0,2.14841 1.7474,3.89646 3.89654,3.89646 2.14714,0 3.89585,-1.74807 3.89585,-3.89646 -7e-5,-2.1478 -1.74874,-3.89585 -3.89585,-3.89585 z m 1.15299,1.8008 c 0.20179,0 0.36393,0.35026 0.36393,0.78254 0,0.43167 -0.16212,0.78259 -0.36393,0.78259 -0.20119,0 -0.3646,-0.35092 -0.3646,-0.78259 0,-0.43228 0.1634,-0.78254 0.3646,-0.78254 z m -2.30734,0 c 0.20192,0 0.36461,0.35026 0.36461,0.78254 0,0.43167 -0.16273,0.78259 -0.36461,0.78259 -0.20113,0 -0.36453,-0.35092 -0.36453,-0.78259 0,-0.43228 0.1634,-0.78254 0.36453,-0.78254 z m 3.81709,3.36846 c -0.14906,0 -0.28906,-0.0377 -0.41407,-0.0989 -0.28322,0.47527 -1.1556,0.88346 -2.24933,0.88346 -1.09307,0 -1.96613,-0.4082 -2.24933,-0.88346 -0.12499,0.0612 -0.26499,0.0989 -0.41473,0.0989 V 8.88733 c 0.29561,0 0.53646,-0.22134 0.53646,-0.49281 h 0.3854 c 0,0.20247 -0.0761,0.38866 -0.19793,0.53714 0.13155,0.32867 0.91668,0.74019 1.94013,0.74019 1.02345,0 1.8086,-0.41146 1.93947,-0.74019 C 9.81775,8.7832 9.74223,8.59699 9.74223,8.39452 h 0.3854 c 0,0.27147 0.24085,0.49281 0.53578,0.49281 z M 15.1198,0.8802 C 14.53252,0.29293 13.8268,0 13,0 H 3 C 2.1732,0 1.46748,0.29293 0.8802,0.8802 0.293,1.46615 0,2.1732 0,3 v 9.99998 c 0,0.8268 0.293,1.53387 0.8802,2.12108 C 1.46748,15.70572 2.17448,16 3,16 h 10 c 0.8268,0 1.53252,-0.29428 2.1198,-0.8802 C 15.707,14.53252 16,13.8268 16,13 V 3.00002 C 16,2.17322 15.707,1.46615 15.1198,0.88022 Z M 13.431,11.93878 c -0.0521,0.18426 -0.26299,0.3034 -0.52801,0.34892 -0.21354,0.0378 -0.12632,0.0723 -0.13018,0.26306 -0.005,0.28648 -0.10807,0.51168 -0.3522,0.66468 -0.18426,0.1146 -0.39715,0.12373 -0.6016,0.11593 -0.28186,-0.008 -0.57226,-0.14846 -0.64386,-0.31579 -0.0847,-0.19725 0.0104,-0.32554 0.0885,-0.4668 0.0996,-0.18093 0.0508,-0.36261 -0.0788,-0.51367 -0.13994,-0.16405 -0.48501,-0.5182 -0.68093,-0.72719 -0.69602,0.52801 -1.56188,0.84575 -2.50327,0.84575 -0.94206,0 -1.80792,-0.31774 -2.50459,-0.84575 -0.1966,0.20901 -0.54032,0.56314 -0.68093,0.72719 -0.13026,0.15106 -0.17841,0.33274 -0.0781,0.51367 0.0774,0.14126 0.17187,0.26953 0.0885,0.4668 -0.0723,0.16731 -0.36267,0.30732 -0.64386,0.31579 -0.20513,0.008 -0.41734,-10e-4 -0.60227,-0.11593 -0.24348,-0.153 -0.34759,-0.3782 -0.35286,-0.66468 -0.003,-0.1908 0.0847,-0.22526 -0.12885,-0.26306 -0.26567,-0.0455 -0.47661,-0.16466 -0.52866,-0.34892 -0.0514,-0.18554 -0.0254,-0.33141 0.0449,-0.49672 0.11586,-0.2142 0.21613,-0.2572 0.40299,-0.31512 0.16147,-0.0488 0.44401,-0.026 0.6888,0.0684 0.0553,0.0221 0.10548,0.0573 0.15819,0.0859 0.15819,0.0846 0.25326,0.0683 0.37306,-0.06 0.0697,-0.0749 0.28648,-0.27079 0.58334,-0.55207 C 4.21352,9.94717 3.84624,9.01685 3.84624,7.9999 3.84624,6.98365 4.21278,6.05331 4.82031,5.33129 4.52345,5.05003 4.30665,4.85403 4.23697,4.77916 4.11717,4.65031 4.0221,4.63462 3.86391,4.71996 3.81121,4.74796 3.76104,4.78246 3.70572,4.80516 3.46092,4.89886 3.17839,4.92235 3.01692,4.87286 2.83006,4.81556 2.72979,4.77192 2.61393,4.55774 2.54363,4.39301 2.51753,4.24654 2.56903,4.06102 2.62113,3.87742 2.83202,3.75829 3.09769,3.71269 3.31123,3.67499 3.22335,3.64039 3.22654,3.44902 3.23154,3.16328 3.33594,2.93729 3.5794,2.78495 3.76433,2.66974 3.97654,2.66062 4.18167,2.66909 c 0.28121,0.009 0.57159,0.1478 0.64386,0.31572 0.0833,0.19792 -0.0111,0.32554 -0.0885,0.46618 -0.10026,0.18228 -0.0521,0.36328 0.0781,0.51427 0.14061,0.16405 0.48433,0.51827 0.68093,0.72726 0.69667,-0.52801 1.56253,-0.84575 2.50459,-0.84575 0.94141,0 1.80725,0.31774 2.50327,0.84507 0.19592,-0.20834 0.54032,-0.56253 0.68032,-0.72658 0.13019,-0.15099 0.179,-0.33201 0.0787,-0.51367 -0.0774,-0.14126 -0.17254,-0.26886 -0.0879,-0.4668 0.0716,-0.16794 0.362,-0.30659 0.6432,-0.31572 0.20445,-0.008 0.41666,10e-4 0.60159,0.11586 0.24414,0.153 0.34766,0.37827 0.35286,0.66473 0.004,0.19073 -0.084,0.22526 0.12885,0.26299 0.26567,0.0456 0.47726,0.16473 0.52866,0.34899 0.0515,0.18554 0.0254,0.33134 -0.0449,0.49672 -0.11586,0.2142 -0.21613,0.25715 -0.40307,0.31447 -0.16072,0.0495 -0.44401,0.0267 -0.68812,-0.0677 -0.0553,-0.0221 -0.10548,-0.0573 -0.15819,-0.0853 -0.15819,-0.0853 -0.25394,-0.069 -0.37366,0.0592 -0.0691,0.0749 -0.2852,0.27086 -0.58274,0.55213 0.60754,0.72199 0.97333,1.65232 0.97333,2.66861 0,1.01692 -0.36587,1.94659 -0.97333,2.66926 0.29759,0.28127 0.51434,0.47721 0.58274,0.55207 0.1204,0.12826 0.21547,0.14455 0.37366,0.06 0.0534,-0.0287 0.10354,-0.0638 0.15886,-0.0859 0.24348,-0.0944 0.52666,-0.11719 0.68813,-0.0684 0.18754,0.0579 0.28713,0.10094 0.40299,0.31512 0.0705,0.16533 0.0971,0.3112 0.0451,0.49672 z"
     id="path5"
     inkscape:connector-curvature="0"
     style="stroke-width:0.01822026" />
</svg>
